<?xml version="1.0" encoding="utf-8"?>
<!-- Generator: Adobe Illustrator 17.0.0, SVG Export Plug-In . SVG Version: 6.00 Build 0)  -->
<!DOCTYPE svg PUBLIC "-//W3C//DTD SVG 1.1//EN" "http://www.w3.org/Graphics/SVG/1.1/DTD/svg11.dtd">
<svg version="1.1" id="Calque_1" xmlns="http://www.w3.org/2000/svg" xmlns:xlink="http://www.w3.org/1999/xlink" x="0px" y="0px"
	 width="1000px" height="1000px" viewBox="0 0 1000 1000" enable-background="new 0 0 1000 1000" xml:space="preserve">
<g>
	<circle fill="#0A9AD1" cx="498.096" cy="441.588" r="55.527"/>
	<circle fill="#0A9AD1" cx="426.637" cy="538.411" r="55.527"/>
	<circle fill="#0A9AD1" cx="382.576" cy="409.005" r="55.527"/>
	<circle fill="#0A9AD1" cx="498.096" cy="321.995" r="55.527"/>
	<circle fill="#0A9AD1" cx="571.963" cy="538.411" r="55.527"/>
	<circle fill="#0A9AD1" cx="614.357" cy="409.005" r="55.527"/>
	<path fill="#0A9AD1" d="M787.524,526.898c-63.19-63.191-33.57-43.443-35.051-87.874c-1.481-44.431,0-81.457-34.558-130.331
		c-21.626-30.586-138.764-121.294-256.432-114.359c35.248,25.764,76.581,45.616,110.268,62.647
		c-0.258-0.033-0.493-0.074-0.751-0.106c73.441,29.247,125.418,100.845,125.418,184.713c0,109.851-89.051,198.902-198.902,198.902
		c-109.85,0-198.902-89.051-198.902-198.902c0-107.549,85.417-194.933,192.083-198.558c-39.263-8.779-72.049-19.518-99.62-31.305
		c-45.205,20.888-87.489,62.093-120.927,133.501c-32.583,73.065-14.317,183.648,45.418,272.51
		c-0.494,39.988,1.481,41.469-57.76,85.9c24.684,19.747,157.977,83.432,220.674,232.028c0,0,28.14,73.558,90.837-73.558
		c0,0,15.797-42.95,32.583-58.747c16.785-15.798,92.811,2.468,105.647,1.974c12.836-0.493,60.722-26.659,44.431-60.722
		c-16.291-34.064,3.703-39.432,16.824-44.893c10.76-7.313-12.196-15.644-12.381-24.715c0-10.367,22.216-9.379,16.291-35.051
		c-5.924-25.672,33.077-39.001,42.95-40.975C825.538,597,850.716,590.089,787.524,526.898z"/>
	<path fill="#0A9AD1" d="M461.484,194.334c-31.354-24.408-89.153-74.35-74.674-148.386C248.58,63.72,248.58,63.72,248.58,63.72
		s1.566,84.404,142.498,148.004C404.914,206.624,420.094,197.738,461.484,194.334z"/>
</g>
</svg>
